<svg width="56" height="56" viewBox="0 0 56 56" fill="none" xmlns="http://www.w3.org/2000/svg">
<path d="M26.0263 4.62689C16.2659 4.63615 11.2179 4.81197 8.01379 8.01379C4.81197 11.2202 4.63615 16.2659 4.62689 26.0263H15.9952C15.1633 24.9881 14.5659 23.7822 14.2439 22.4914C13.0016 17.5128 17.5128 13.0016 22.4914 14.2439C23.8147 14.5747 25.013 15.1832 26.0263 15.9952V4.62689ZM4.62689 29.4965C4.63615 39.2547 4.81197 44.3026 8.01379 47.5067C11.2202 50.7109 16.2659 50.8844 26.0263 50.8959V32.6729C25.1138 34.4993 23.7105 36.0353 21.9739 37.1088C20.2372 38.1822 18.2358 38.7507 16.1942 38.7503C15.734 38.7503 15.2927 38.5675 14.9673 38.2421C14.6419 37.9167 14.4591 37.4754 14.4591 37.0152C14.4591 36.5551 14.6419 36.1137 14.9673 35.7883C15.2927 35.4629 15.734 35.2801 16.1942 35.2801C17.8867 35.2801 19.5298 34.7091 20.8577 33.6596C22.1856 32.6101 23.1206 31.1433 23.5116 29.4965H4.62689ZM29.4965 50.8959C39.2547 50.8844 44.3026 50.7109 47.5067 47.5067C50.7109 44.3049 50.8844 39.2547 50.8959 29.4965H32.0112C32.4022 31.1433 33.3373 32.6101 34.6651 33.6596C35.993 34.7091 37.6361 35.2801 39.3287 35.2801C39.7889 35.2801 40.2302 35.4629 40.5556 35.7883C40.881 36.1137 41.0638 36.5551 41.0638 37.0152C41.0638 37.4754 40.881 37.9167 40.5556 38.2421C40.2302 38.5675 39.7889 38.7503 39.3287 38.7503C37.287 38.7507 35.2856 38.1822 33.549 37.1088C31.8123 36.0353 30.409 34.4993 29.4965 32.6729V50.8959ZM50.8959 26.0263C50.8844 16.2659 50.7109 11.2179 47.5067 8.01379C44.3049 4.81197 39.2547 4.63615 29.4965 4.62689V15.9952C30.5341 15.1637 31.7392 14.5663 33.0292 14.2439C38.01 12.9993 42.5236 17.5105 41.2766 22.4914C40.9553 23.782 40.3587 24.9879 39.5276 26.0263H50.8959Z" fill="#F84C3B"/>
<path d="M21.6493 17.6123C22.8992 17.9244 24.0089 18.6454 24.802 19.6607C25.5951 20.676 26.0261 21.9272 26.0264 23.2155V26.0263H23.2155C21.9272 26.026 20.676 25.5951 19.6608 24.802C18.6455 24.0089 17.9245 22.8992 17.6124 21.6493C17.4737 21.0917 17.4816 20.5077 17.6353 19.954C17.789 19.4003 18.0833 18.8958 18.4896 18.4895C18.8959 18.0832 19.4004 17.7889 19.954 17.6352C20.5077 17.4815 21.0917 17.4736 21.6493 17.6123ZM29.4966 23.2155V26.0263H32.3074C34.9563 26.0263 37.2674 24.2218 37.9106 21.6493C38.0494 21.0914 38.0416 20.5071 37.8878 19.9532C37.734 19.3993 37.4394 18.8946 37.0328 18.4882C36.6262 18.0819 36.1214 17.7876 35.5674 17.6341C35.0134 17.4806 34.4291 17.4731 33.8713 17.6123C32.6218 17.9249 31.5126 18.6461 30.72 19.6613C29.9274 20.6765 29.4967 21.9275 29.4966 23.2155Z" fill="#F84C3B"/>
</svg>
